<svg xmlns="http://www.w3.org/2000/svg" xmlns:xlink="http://www.w3.org/1999/xlink" id="svg1" width="2000" height="2000" version="1.1" viewBox="2020 0 2000 2000"><defs id="defs1"/><g id="layer-MC0" transform="translate(-8080)"><path id="path36" d="M 0,0 H 1500 V 1500 H 0 Z" style="fill:#45592e;fill-opacity:1;fill-rule:nonzero;stroke:none" transform="matrix(1.33333 0 0 -1.33333 10100 2000)"/><path id="path37" d="M 0,0 C 0,9.7 4.157,13.858 13.857,13.858 H 76.216 C 85.917,13.858 90.074,9.7 90.074,0 v -44.344 h 13.857 v 43.651 c 0,18.708 -9.007,27.715 -27.715,27.715 H 13.857 c -18.707,0 -27.714,-9.007 -27.714,-27.715 v -131.646 c 0,-18.708 9.007,-27.715 27.714,-27.715 h 62.359 c 18.708,0 27.715,9.007 27.715,27.715 v 57.508 h 22.172 v 12.472 H 24.251 v -12.472 h 56.123 c 6.235,0 9.7,-3.464 9.7,-9.7 v -48.501 c 0,-9.7 -4.157,-13.858 -13.858,-13.858 H 13.857 C 4.85,-146.89 0,-142.039 0,-133.032 Z m 143.425,-65.823 c 0,18.708 9.007,27.715 27.715,27.715 h 45.73 c 18.707,0 27.715,-9.007 27.715,-27.715 v -66.516 c 0,-18.015 -9.7,-27.715 -27.715,-27.715 h -45.73 c -18.708,0 -27.715,9.007 -27.715,27.715 z m 27.022,15.243 c -9.007,0 -13.857,-4.85 -13.857,-13.857 v -69.288 c 0,-9.007 4.85,-13.857 13.857,-13.857 h 47.116 c 9.007,0 13.857,4.85 13.857,13.857 v 69.288 c 0,9.007 -4.85,13.857 -13.857,13.857 z m 20.094,47.116 h 6.928 c 5.543,-13.165 14.551,-20.094 29.794,-20.094 12.472,0 20.786,6.929 27.715,17.322 l -10.393,6.929 c -4.85,-8.315 -11.086,-11.779 -18.015,-11.779 -10.393,0 -15.243,6.236 -17.322,15.936 l -0.693,3.464 h -29.1 L 178.762,4.85 c -2.079,-9.7 -6.929,-15.936 -17.322,-15.936 -6.929,0 -13.165,3.464 -18.015,11.779 l -10.393,-6.929 c 6.929,-10.393 15.243,-17.322 27.715,-17.322 15.243,0 24.251,6.929 29.794,20.094 m -46.423,27.715 4.85,-11.086 97.695,34.643 -4.85,11.086 z M 289.622,4.157 c 0,6.236 3.464,9.701 9.7,9.701 h 18.015 c 22.172,0 34.643,-18.015 34.643,-40.88 v -133.032 h 13.858 v 133.032 c 0,22.865 12.472,40.88 34.644,40.88 h 18.014 c 6.929,0 9.701,-2.772 9.701,-9.701 v -164.211 h 13.857 v 185.69 l -1.386,1.386 h -41.572 c -20.093,0 -36.03,-11.779 -39.494,-25.636 h -1.386 c -4.157,13.857 -21.479,25.636 -39.494,25.636 H 277.15 l -1.386,-1.386 v -185.69 h 13.858 z M 33.258,-214.098 c -2.772,6.236 -6.929,9.007 -13.857,9.007 h -3.465 c -9.007,0 -13.857,-4.85 -13.857,-13.858 v -160.054 h -13.858 v 159.362 c 0,18.707 9.008,27.715 27.715,27.715 h 22.172 l 1.386,-0.693 72.059,-164.212 c 2.771,-6.235 6.929,-9.007 13.857,-9.007 h 3.465 c 9.7,0 13.857,4.157 13.857,13.858 v 160.054 h 13.858 v -159.362 c 0,-18.707 -9.008,-27.715 -27.715,-27.715 h -22.172 l -1.386,0.693 z m 166.29,-84.531 c 0,6.236 3.464,9.7 9.7,9.7 h 70.674 c 6.235,0 9.7,-3.464 9.7,-9.7 v -80.374 h 13.857 v 187.077 h -13.857 v -74.138 c 0,-6.236 -3.465,-9.7 -9.7,-9.7 h -70.674 c -6.928,0 -9.7,2.771 -9.7,9.7 v 74.138 H 185.69 v -187.077 h 13.858 z m 229.342,-18.015 c 0,6.236 -3.465,9.7 -9.701,9.7 h -59.587 c -9.007,0 -13.857,-4.85 -13.857,-13.857 v -31.872 c 0,-9.701 4.157,-13.858 13.857,-13.858 h 34.644 c 18.707,0 34.644,15.243 34.644,34.644 z m -98.389,112.939 h 113.632 v 11.779 H 330.501 Z M 267.45,-422.654 h 176.683 v 11.779 H 267.45 Z m 51.272,-214.791 c -4.85,4.85 -9.7,6.929 -16.629,6.929 h -4.85 c -9.007,0 -13.857,-4.85 -13.857,-13.858 v -71.366 h -13.165 v 70.673 c 0,18.708 9.008,27.715 27.715,27.715 h 18.708 l 2.771,-1.385 74.138,-76.909 c 4.85,-4.851 9.7,-6.929 16.629,-6.929 h 4.85 c 9.7,0 13.858,4.157 13.858,13.857 v 71.366 h 13.164 v -70.673 c 0,-18.707 -9.007,-27.715 -27.715,-27.715 h -18.707 l -2.772,1.386 z M 58.894,-433.74 c 0,6.236 3.465,9.701 9.701,9.701 h 175.99 v 13.164 H -18.708 v -13.164 h 54.045 c 6.235,0 9.7,-3.465 9.7,-9.701 v -282.693 h 13.857 z m 234.885,-153.818 c -9.007,0 -13.857,4.85 -13.857,13.857 v 13.165 c 0,9.7 4.157,13.858 13.857,13.858 h 125.41 c 6.236,0 9.701,-3.465 9.701,-9.701 0,-18.707 -15.937,-31.179 -34.644,-31.179 z m 148.275,233.499 c 0,-8.315 4.157,-12.472 12.472,-12.472 h 9.7 v -12.472 h -12.472 c -9.7,0 -20.093,6.236 -21.479,16.629 h -0.692 c -7.622,-10.393 -18.015,-16.629 -34.644,-16.629 h -34.644 c -18.708,0 -27.715,9.008 -27.715,27.715 v 29.101 c 0,18.708 9.007,27.715 27.715,27.715 h 58.894 c 6.236,0 9.701,3.464 9.701,9.7 v 24.251 c 0,9.007 -4.851,13.857 -13.858,13.857 h -54.044 c -8.315,0 -12.472,-4.157 -12.472,-12.471 v -17.322 h -13.165 v 15.243 c 0,18.015 9.008,27.022 27.023,27.022 h 51.965 c 18.708,0 27.715,-9.007 27.715,-27.715 z m 12.472,-233.499 c -8.315,0 -12.472,4.157 -12.472,12.472 v 65.13 c 0,18.708 -9.007,27.715 -27.715,27.715 H 297.936 c -18.707,0 -27.715,-9.007 -27.715,-27.715 v -7.622 h 13.165 v 9.008 c 0,9.7 4.157,13.857 13.857,13.857 h 117.789 c 9.007,0 13.858,-4.85 13.858,-13.857 v -15.936 c 0,-6.236 -3.465,-9.701 -9.701,-9.701 H 294.472 c -18.708,0 -27.715,-9.007 -27.715,-27.715 v -10.393 c 0,-18.707 9.007,-27.715 27.715,-27.715 h 99.774 c 14.55,0 27.715,4.157 34.644,13.858 h 0.693 c 3.464,-9.701 9.7,-13.858 20.786,-13.858 h 13.857 v 12.472 z m -337.43,19.401 c 0,6.928 2.771,9.7 9.7,9.7 h 56.816 c 22.865,0 39.494,-20.094 39.494,-48.501 v -109.475 h 13.857 v 109.475 c 0,24.943 -7.621,42.265 -25.636,54.737 v 0.692 c 18.707,7.622 29.101,22.865 29.101,44.344 0,29.794 -20.787,49.888 -56.816,49.888 h -52.659 c -18.707,0 -27.715,-9.008 -27.715,-27.715 v -231.421 h 13.858 z m 9.7,22.864 c -6.929,0 -9.7,2.772 -9.7,9.701 v 51.272 c 0,9.008 4.85,13.858 13.857,13.858 h 54.045 c 24.943,0 40.879,-13.165 41.572,-36.723 0.693,-23.557 -17.322,-38.108 -42.958,-38.108 z m 235.578,97.696 h -13.858 c -11.086,-12.472 -24.251,-18.015 -41.572,-18.015 -13.858,0 -27.715,6.236 -36.03,15.243 l 9.008,8.315 c 7.621,-7.622 18.014,-11.086 27.714,-11.086 11.779,0 22.173,4.157 30.487,13.857 l 2.772,3.465 h 29.1 l 2.772,-3.465 c 8.314,-9.7 18.707,-13.857 30.486,-13.857 9.7,0 20.094,3.464 27.715,11.086 l 9.008,-8.315 c -8.315,-9.007 -22.172,-15.243 -36.03,-15.243 -17.322,0 -30.486,5.543 -41.572,18.015" style="fill:#fcddd8;fill-opacity:1;fill-rule:nonzero;stroke:none" transform="matrix(1.33333 0 0 -1.33333 10802.988 549.08)"/><path id="path38" d="m 0,0 c -31.172,0 -56.532,-25.36 -56.532,-56.532 0,-2.605 -2.111,-4.713 -4.714,-4.713 -31.172,0 -56.532,-25.36 -56.532,-56.533 v -690.08 c 0,-31.172 25.36,-56.532 56.532,-56.532 2.603,0 4.714,-2.109 4.714,-4.713 0,-31.172 25.36,-56.532 56.532,-56.532 h 426.526 c 31.172,0 56.535,25.36 56.535,56.532 0,2.604 2.108,4.713 4.712,4.713 31.173,0 56.533,25.36 56.533,56.532 v 690.08 c 0,31.173 -25.36,56.533 -56.533,56.533 -2.604,0 -4.712,2.108 -4.712,4.713 C 483.061,-25.36 457.698,0 426.526,0 Z M 426.526,-935.061 H 0 c -34.839,0 -63.456,27.146 -65.804,61.4 -34.253,2.349 -61.402,30.965 -61.402,65.803 v 690.08 c 0,34.839 27.149,63.454 61.402,65.803 C -63.456,-17.721 -34.839,9.426 0,9.426 h 426.526 c 34.84,0 63.456,-27.147 65.805,-61.401 34.254,-2.349 61.401,-30.964 61.401,-65.803 v -690.08 c 0,-34.838 -27.147,-63.454 -61.401,-65.803 -2.349,-34.254 -30.965,-61.4 -65.805,-61.4" style="fill:#fcddd8;fill-opacity:1;fill-rule:nonzero;stroke:none" transform="matrix(1.33333 0 0 -1.33333 10815.649 382.91)"/><path id="path39" d="m 0,0 c -22.429,0 -40.677,-18.248 -40.677,-40.677 v -690.08 c 0,-22.429 18.248,-40.677 40.677,-40.677 h 17.999 c 1.42,0 2.571,-1.152 2.571,-2.571 v -17.997 c 0,-22.429 18.248,-40.677 40.676,-40.677 h 426.526 c 22.429,0 40.677,18.248 40.677,40.677 v 17.997 c 0,1.419 1.152,2.571 2.571,2.571 h 18 c 22.429,0 40.677,18.248 40.677,40.677 v 690.08 C 589.697,-18.248 571.449,0 549.02,0 h -18 c -1.419,0 -2.571,1.152 -2.571,2.571 v 17.997 c 0,22.429 -18.248,40.677 -40.677,40.677 H 61.246 C 38.818,61.245 20.57,42.997 20.57,20.568 V 2.571 C 20.57,1.152 19.419,0 17.999,0 Z M 487.772,-837.821 H 61.246 c -25.264,0 -45.818,20.554 -45.818,45.819 v 15.426 H 0 c -25.265,0 -45.819,20.555 -45.819,45.819 v 690.08 c 0,25.265 20.554,45.819 45.819,45.819 h 15.428 v 15.426 c 0,25.265 20.554,45.819 45.818,45.819 h 426.526 c 25.265,0 45.819,-20.554 45.819,-45.819 V 5.142 h 15.429 c 25.264,0 45.819,-20.554 45.819,-45.819 v -690.08 c 0,-25.264 -20.555,-45.819 -45.819,-45.819 h -15.429 v -15.426 c 0,-25.265 -20.554,-45.819 -45.819,-45.819" style="fill:#fcddd8;fill-opacity:1;fill-rule:nonzero;stroke:none" transform="matrix(1.33333 0 0 -1.33333 10733.988 485.71)"/></g></svg>