<svg xmlns="http://www.w3.org/2000/svg" xmlns:xlink="http://www.w3.org/1999/xlink" id="svg1" width="2000" height="2000" version="1.1" viewBox="-8080 0 2000 2000"><defs id="defs1"/><g id="layer-MC0" transform="translate(-8080)"><path id="path1" d="M 0,0 H 1500 V 1500 H 0 Z" style="fill:#45592e;fill-opacity:1;fill-rule:nonzero;stroke:none" transform="matrix(1.33333 0 0 -1.33333 0 2000)"/><path id="path2" d="m 0,0 v -10.33 h 46.49 c 5.17,0 8.04,-2.87 8.04,-8.03 v -40.18 c 0,-8.04 -3.45,-11.48 -11.48,-11.48 H -8.61 c -7.46,0 -11.48,4.02 -11.48,11.48 v 110.2 c 0,8.04 3.44,11.48 11.48,11.48 h 51.66 c 8.03,0 11.48,-3.44 11.48,-11.48 V 14.93 H 66 V 51.09 C 66,66.58 58.54,74.05 43.05,74.05 H -8.61 c -15.5,0 -22.96,-7.47 -22.96,-22.96 V -57.97 c 0,-15.49 7.46,-22.95 22.96,-22.95 h 51.66 c 15.49,0 22.95,7.46 22.95,22.95 v 47.64 H 84.37 V 0 Z m 171.61,-59.11 c 0,-7.47 -4.01,-11.48 -11.47,-11.48 h -39.03 c -7.47,0 -11.48,4.01 -11.48,11.48 v 57.39 c 0,7.46 4.01,11.48 11.48,11.48 h 39.03 c 7.46,0 11.47,-4.02 11.47,-11.48 z m -12.05,79.2 h -37.88 c -15.5,0 -22.96,-7.46 -22.96,-22.96 v -55.1 c 0,-15.49 7.46,-22.95 22.96,-22.95 h 37.88 c 14.92,0 22.96,8.03 22.96,22.95 v 55.1 c 0,15.5 -7.46,22.96 -22.96,22.96 m 22.96,32.15 c -4.02,-6.89 -9.18,-9.76 -14.92,-9.76 -8.61,0 -12.63,5.16 -14.35,13.2 l -0.58,2.87 h -24.1 l -0.58,-2.87 c -1.72,-8.04 -5.74,-13.2 -14.35,-13.2 -5.74,0 -10.9,2.87 -14.92,9.76 L 90.11,46.5 c 5.74,-8.61 12.63,-14.35 22.96,-14.35 12.63,0 20.09,5.74 24.68,16.64 h 5.74 c 4.59,-10.9 12.05,-16.64 24.68,-16.64 10.33,0 17.22,5.74 22.96,14.35 z m -2.3,48.21 -80.93,-28.7 4.02,-9.18 80.93,28.7 z m 164.73,-26.4 h -34.44 c -16.64,0 -29.84,-9.76 -32.71,-21.24 h -1.15 c -3.44,11.48 -17.79,21.24 -32.72,21.24 H 209.5 L 208.35,72.9 V -80.92 h 11.48 V 55.11 c 0,5.16 2.87,8.03 8.03,8.03 h 14.93 c 18.36,0 28.69,-14.92 28.69,-33.86 v -110.2 h 11.48 v 110.2 c 0,18.94 10.34,33.86 28.7,33.86 h 14.93 c 5.73,0 8.03,-2.29 8.03,-8.03 V -80.92 H 346.1 V 72.9 Z M 98.15,-107.33 v -132.58 c 0,-8.04 -3.45,-11.48 -11.48,-11.48 H 83.8 c -5.74,0 -9.19,2.29 -11.48,7.46 l -59.69,136.03 -1.15,0.57 H -6.89 c -15.5,0 -22.96,-7.46 -22.96,-22.96 V -262.3 h 11.48 v 132.59 c 0,7.46 4.02,11.48 11.48,11.48 h 2.87 c 5.74,0 9.18,-2.3 11.48,-7.46 l 59.69,-136.03 1.15,-0.58 h 18.37 c 15.49,0 22.96,7.46 22.96,22.96 v 132.01 z m 121.68,0 v -61.41 c 0,-5.17 -2.87,-8.04 -8.04,-8.04 h -58.54 c -5.74,0 -8.04,2.3 -8.04,8.04 v 61.41 H 133.73 V -262.3 h 11.48 v 66.58 c 0,5.17 2.87,8.04 8.04,8.04 h 58.54 c 5.17,0 8.04,-2.87 8.04,-8.04 v -66.58 h 11.48 v 154.97 z m 33.86,-9.75 h 94.13 v 9.75 h -94.13 z m -52.23,-181.38 h 146.36 v 9.76 H 201.46 Z m 133.73,-161.28 v -59.12 c 0,-8.04 -3.44,-11.48 -11.47,-11.48 h -4.02 c -5.74,0 -9.76,1.72 -13.78,5.74 l -61.41,63.71 -2.3,1.15 h -15.49 c -15.5,0 -22.96,-7.46 -22.96,-22.96 v -58.55 h 10.9 v 59.12 c 0,7.46 4.02,11.48 11.48,11.48 h 4.02 c 5.74,0 9.76,-1.72 13.77,-5.74 l 61.42,-63.71 2.29,-1.15 h 15.5 c 15.5,0 22.96,7.47 22.96,22.96 v 58.55 z M -35.59,-288.7 v -10.91 H 9.18 c 5.17,0 8.04,-2.87 8.04,-8.03 V -541.82 H 28.7 v 234.18 c 0,5.16 2.87,8.03 8.03,8.03 h 145.79 v 10.91 z m 370.78,65.43 c 0,-16.07 -13.2,-28.7 -28.69,-28.7 h -28.7 c -8.04,0 -11.48,3.45 -11.48,11.48 v 26.41 c 0,7.46 4.02,11.47 11.48,11.47 h 49.36 c 5.16,0 8.03,-2.87 8.03,-8.03 z m 21.24,-28.7 c -6.89,0 -10.33,3.45 -10.33,10.34 v 76.33 c 0,15.5 -7.46,22.96 -22.96,22.96 h -43.05 c -14.92,0 -22.38,-7.46 -22.38,-22.38 v -12.63 h 10.9 V -163 c 0,6.89 3.45,10.33 10.34,10.33 h 44.77 c 7.46,0 11.47,-4.02 11.47,-11.48 v -20.09 c 0,-5.16 -2.87,-8.03 -8.03,-8.03 h -48.79 c -15.49,0 -22.96,-7.47 -22.96,-22.96 v -24.11 c 0,-15.5 7.47,-22.96 22.96,-22.96 h 28.7 c 13.78,0 22.39,5.17 28.7,13.78 h 0.57 c 1.15,-8.61 9.76,-13.78 17.8,-13.78 h 10.33 v 10.33 z M 306.5,-435.06 h -83.23 c -7.46,0 -11.48,4.02 -11.48,11.48 v 10.9 c 0,8.04 3.45,11.48 11.48,11.48 h 103.89 c 5.16,0 8.03,-2.87 8.03,-8.03 0,-15.5 -13.2,-25.83 -28.69,-25.83 m 49.93,0 c -6.89,0 -10.33,3.44 -10.33,10.33 v 53.95 c 0,15.5 -7.46,22.96 -22.96,22.96 h -96.42 c -15.5,0 -22.96,-7.46 -22.96,-22.96 v -6.31 h 10.9 v 7.46 c 0,8.04 3.45,11.48 11.48,11.48 h 97.58 c 7.46,0 11.47,-4.02 11.47,-11.48 v -13.2 c 0,-5.17 -2.87,-8.04 -8.03,-8.04 H 223.85 c -15.5,0 -22.96,-7.46 -22.96,-22.95 v -8.61 c 0,-15.5 7.46,-22.96 22.96,-22.96 h 82.65 c 12.05,0 22.96,3.44 28.69,11.48 h 0.58 c 2.87,-8.04 8.03,-11.48 17.22,-11.48 h 11.48 v 10.33 z m -224.42,35.01 H 84.95 c -5.74,0 -8.04,2.3 -8.04,8.04 v 42.47 c 0,7.46 4.02,11.48 11.48,11.48 h 44.77 c 20.66,0 33.86,-10.91 34.44,-30.42 0.57,-19.52 -14.35,-31.57 -35.59,-31.57 m 22.96,-5.74 v 0.57 c 15.5,6.32 24.11,18.95 24.11,36.74 0,24.68 -17.22,41.32 -47.07,41.32 H 88.39 c -15.5,0 -22.96,-7.46 -22.96,-22.95 v -191.71 h 11.48 v 122.83 c 0,5.74 2.3,8.04 8.04,8.04 h 47.06 c 18.94,0 32.72,-16.65 32.72,-40.18 v -90.69 h 11.48 v 90.69 c 0,20.66 -6.32,35.01 -21.24,45.34 m 181.95,91.26 c -6.32,-6.31 -14.93,-9.18 -22.96,-9.18 -9.76,0 -18.37,3.44 -25.26,11.48 l -2.29,2.87 H 262.3 l -2.29,-2.87 c -6.89,-8.04 -15.5,-11.48 -25.26,-11.48 -8.03,0 -16.64,2.87 -22.96,9.18 l -7.46,-6.89 c 6.89,-7.46 18.37,-12.62 29.85,-12.62 14.35,0 25.25,4.59 34.43,14.92 h 11.48 c 9.19,-10.33 20.09,-14.92 34.44,-14.92 11.48,0 22.96,5.16 29.85,12.62 z" style="fill:#fcddd8;fill-opacity:1;fill-rule:nonzero;stroke:none" transform="matrix(1.33333 0 0 -1.33333 780.747 668.093)"/><path id="path3" d="m 0,0 c 0,-25.82 -21.01,-46.83 -46.83,-46.83 -2.16,0 -3.9,-1.74 -3.9,-3.9 0,-25.82 -21.01,-46.83 -46.84,-46.83 h -353.32 c -25.83,0 -46.84,21.01 -46.84,46.83 0,2.16 -1.74,3.9 -3.9,3.9 -25.82,0 -46.83,21.01 -46.83,46.83 v 612.54 c 0,25.82 21.01,46.83 46.83,46.83 2.16,0 3.9,1.74 3.9,3.9 0,25.82 21.01,46.83 46.84,46.83 h 353.32 c 25.83,0 46.84,-21.01 46.84,-46.83 0,-2.16 1.74,-3.9 3.9,-3.9 25.82,0 46.83,-21.01 46.83,-46.83 z m -43.05,667.05 c -1.95,28.37 -25.66,50.86 -54.52,50.86 h -353.32 c -28.86,0 -52.57,-22.49 -54.52,-50.86 -28.37,-1.95 -50.86,-25.65 -50.86,-54.51 V 0 c 0,-28.85 22.49,-52.56 50.86,-54.51 1.95,-28.37 25.66,-50.86 54.52,-50.86 h 353.32 c 28.86,0 52.57,22.49 54.52,50.86 28.37,1.95 50.86,25.66 50.86,54.51 v 612.54 c 0,28.86 -22.49,52.56 -50.86,54.51" style="fill:#fcddd8;fill-opacity:1;fill-rule:nonzero;stroke:none" transform="matrix(1.33333 0 0 -1.33333 1365.64 1408.36)"/><path id="path4" d="m 0,0 c 0,-18.57 -15.12,-33.69 -33.7,-33.69 h -14.91 c -1.17,0 -2.13,-0.96 -2.13,-2.13 v -14.91 c 0,-18.58 -15.12,-33.7 -33.7,-33.7 h -353.32 c -18.58,0 -33.7,15.12 -33.7,33.7 v 14.91 c 0,1.17 -0.96,2.13 -2.13,2.13 h -14.91 c -18.58,0 -33.7,15.12 -33.7,33.69 v 612.54 c 0,18.57 15.12,33.69 33.7,33.69 h 14.91 c 1.17,0 2.13,0.96 2.13,2.13 v 14.91 c 0,18.58 15.12,33.7 33.7,33.7 h 353.32 c 18.58,0 33.7,-15.12 33.7,-33.7 v -14.91 c 0,-1.17 0.96,-2.13 2.13,-2.13 h 14.91 c 18.58,0 33.7,-15.12 33.7,-33.69 z m -33.7,650.49 h -12.78 v 12.78 c 0,20.93 -17.03,37.96 -37.96,37.96 h -353.32 c -20.93,0 -37.96,-17.03 -37.96,-37.96 v -12.78 h -12.78 c -20.93,0 -37.96,-17.03 -37.96,-37.95 V 0 c 0,-20.92 17.03,-37.95 37.96,-37.95 h 12.78 v -12.78 c 0,-20.93 17.03,-37.96 37.96,-37.96 h 353.32 c 20.93,0 37.96,17.03 37.96,37.96 v 12.78 h 12.78 c 20.93,0 37.96,17.03 37.96,37.95 v 612.54 c 0,20.92 -17.03,37.95 -37.96,37.95" style="fill:#fcddd8;fill-opacity:1;fill-rule:nonzero;stroke:none" transform="matrix(1.33333 0 0 -1.33333 1348.133 1408.36)"/><path id="path5" d="M 0,0 H -1.31 V 5.66 H 0.31 C 0.91,5.66 1.34,5.5 1.62,5.14 1.89,4.79 2.03,4.22 2.03,3.46 V 2.26 C 2.03,1.41 1.85,0.83 1.5,0.5 1.14,0.16 0.65,0 0,0" style="fill:#fcddd8;fill-opacity:1;fill-rule:nonzero;stroke:none" transform="matrix(1.33333 0 0 -1.33333 782.713 1438.747)"/><path id="path6" d="m 0,0 c 0.32,-0.37 0.5,-1.06 0.5,-2.05 v -1.86 c 0,-0.81 -0.16,-1.35 -0.44,-1.66 -0.31,-0.3 -0.73,-0.46 -1.3,-0.46 h -1.94 v 6.57 h 1.5 C -0.89,0.54 -0.35,0.36 0,0" style="fill:#fcddd8;fill-opacity:1;fill-rule:nonzero;stroke:none" transform="matrix(1.33333 0 0 -1.33333 785.206 1443.546)"/><path id="path7" d="m 0,0 -1.62,-10.82 h 3.26 z m 0,0 -1.62,-10.82 h 3.26 z m 0,0 -1.62,-10.82 h 3.26 z m 0,0 -1.62,-10.82 h 3.26 z m 0,0 -1.62,-10.82 h 3.26 z m 42.32,0.21 c -0.28,0.36 -0.71,0.52 -1.29,0.52 h -1.64 v -6.57 h 1.31 c 0.65,0 1.14,0.16 1.5,0.48 0.34,0.33 0.53,0.93 0.53,1.78 v 2.11 c 0,0.76 -0.15,1.33 -0.41,1.68 M 53.91,0 52.29,-10.82 h 3.26 z m 0,0 -1.62,-10.82 h 3.26 z M 42.32,0.21 c -0.28,0.36 -0.71,0.52 -1.29,0.52 h -1.64 v -6.57 h 1.31 c 0.65,0 1.14,0.16 1.5,0.48 0.34,0.33 0.53,0.93 0.53,1.78 v 2.11 c 0,0.76 -0.15,1.33 -0.41,1.68 M 0,0 -1.62,-10.82 h 3.26 z m 0,0 -1.62,-10.82 h 3.26 z m 42.32,0.21 c -0.28,0.36 -0.71,0.52 -1.29,0.52 h -1.64 v -6.57 h 1.31 c 0.65,0 1.14,0.16 1.5,0.48 0.34,0.33 0.53,0.93 0.53,1.78 v 2.11 c 0,0.76 -0.15,1.33 -0.41,1.68 M 53.91,0 52.29,-10.82 h 3.26 z m 0,0 -1.62,-10.82 h 3.26 z M 42.32,0.21 c -0.28,0.36 -0.71,0.52 -1.29,0.52 h -1.64 v -6.57 h 1.31 c 0.65,0 1.14,0.16 1.5,0.48 0.34,0.33 0.53,0.93 0.53,1.78 v 2.11 c 0,0.76 -0.15,1.33 -0.41,1.68 M 0,0 -1.62,-10.82 h 3.26 z m 0,0 -1.62,-10.82 h 3.26 z m 42.32,0.21 c -0.28,0.36 -0.71,0.52 -1.29,0.52 h -1.64 v -6.57 h 1.31 c 0.65,0 1.14,0.16 1.5,0.48 0.34,0.33 0.53,0.93 0.53,1.78 v 2.11 c 0,0.76 -0.15,1.33 -0.41,1.68 M 53.91,0 52.29,-10.82 h 3.26 z m 0,0 -1.62,-10.82 h 3.26 z M 42.32,0.21 c -0.28,0.36 -0.71,0.52 -1.29,0.52 h -1.64 v -6.57 h 1.31 c 0.65,0 1.14,0.16 1.5,0.48 0.34,0.33 0.53,0.93 0.53,1.78 v 2.11 c 0,0.76 -0.15,1.33 -0.41,1.68 M 0,0 -1.62,-10.82 h 3.26 z m 0,0 -1.62,-10.82 h 3.26 z m 42.32,0.21 c -0.28,0.36 -0.71,0.52 -1.29,0.52 h -1.64 v -6.57 h 1.31 c 0.65,0 1.14,0.16 1.5,0.48 0.34,0.33 0.53,0.93 0.53,1.78 v 2.11 c 0,0.76 -0.15,1.33 -0.41,1.68 M 53.91,0 52.29,-10.82 h 3.26 z m 71.28,0.21 c -0.26,0.36 -0.71,0.52 -1.3,0.52 h -1.61 v -6.57 h 1.31 c 0.63,0 1.13,0.16 1.48,0.48 0.36,0.33 0.54,0.93 0.54,1.78 v 2.11 c 0,0.76 -0.14,1.33 -0.42,1.68 M 136.8,0 135.18,-10.82 h 3.24 z m 0,0 -1.62,-10.82 h 3.24 z m -11.61,0.21 c -0.26,0.36 -0.71,0.52 -1.3,0.52 h -1.61 v -6.57 h 1.31 c 0.63,0 1.13,0.16 1.48,0.48 0.36,0.33 0.54,0.93 0.54,1.78 v 2.11 c 0,0.76 -0.14,1.33 -0.42,1.68 M 53.91,0 52.29,-10.82 h 3.26 z M 42.32,0.21 c -0.28,0.36 -0.71,0.52 -1.29,0.52 h -1.64 v -6.57 h 1.31 c 0.65,0 1.14,0.16 1.5,0.48 0.34,0.33 0.53,0.93 0.53,1.78 v 2.11 c 0,0.76 -0.15,1.33 -0.41,1.68 M 0,0 -1.62,-10.82 h 3.26 z m 0,0 -1.62,-10.82 h 3.26 z m 42.32,0.21 c -0.28,0.36 -0.71,0.52 -1.29,0.52 h -1.64 v -6.57 h 1.31 c 0.65,0 1.14,0.16 1.5,0.48 0.34,0.33 0.53,0.93 0.53,1.78 v 2.11 c 0,0.76 -0.15,1.33 -0.41,1.68 M 53.91,0 52.29,-10.82 h 3.26 z m 71.28,0.21 c -0.26,0.36 -0.71,0.52 -1.3,0.52 h -1.61 v -6.57 h 1.31 c 0.63,0 1.13,0.16 1.48,0.48 0.36,0.33 0.54,0.93 0.54,1.78 v 2.11 c 0,0.76 -0.14,1.33 -0.42,1.68 M 136.8,0 135.18,-10.82 h 3.24 z m 0,0 -1.62,-10.82 h 3.24 z m -11.61,0.21 c -0.26,0.36 -0.71,0.52 -1.3,0.52 h -1.61 v -6.57 h 1.31 c 0.63,0 1.13,0.16 1.48,0.48 0.36,0.33 0.54,0.93 0.54,1.78 v 2.11 c 0,0.76 -0.14,1.33 -0.42,1.68 M 53.91,0 52.29,-10.82 h 3.26 z M 42.32,0.21 c -0.28,0.36 -0.71,0.52 -1.29,0.52 h -1.64 v -6.57 h 1.31 c 0.65,0 1.14,0.16 1.5,0.48 0.34,0.33 0.53,0.93 0.53,1.78 v 2.11 c 0,0.76 -0.15,1.33 -0.41,1.68 M 0,0 -1.62,-10.82 h 3.26 z m 0,0 -1.62,-10.82 h 3.26 z m 42.32,0.21 c -0.28,0.36 -0.71,0.52 -1.29,0.52 h -1.64 v -6.57 h 1.31 c 0.65,0 1.14,0.16 1.5,0.48 0.34,0.33 0.53,0.93 0.53,1.78 v 2.11 c 0,0.76 -0.15,1.33 -0.41,1.68 M 53.91,0 52.29,-10.82 h 3.26 z m 71.28,0.21 c -0.26,0.36 -0.71,0.52 -1.3,0.52 h -1.61 v -6.57 h 1.31 c 0.63,0 1.13,0.16 1.48,0.48 0.36,0.33 0.54,0.93 0.54,1.78 v 2.11 c 0,0.76 -0.14,1.33 -0.42,1.68 M 136.8,0 135.18,-10.82 h 3.24 z m 0,0 -1.62,-10.82 h 3.24 z m -11.61,0.21 c -0.26,0.36 -0.71,0.52 -1.3,0.52 h -1.61 v -6.57 h 1.31 c 0.63,0 1.13,0.16 1.48,0.48 0.36,0.33 0.54,0.93 0.54,1.78 v 2.11 c 0,0.76 -0.14,1.33 -0.42,1.68 M 53.91,0 52.29,-10.82 h 3.26 z M 42.32,0.21 c -0.28,0.36 -0.71,0.52 -1.29,0.52 h -1.64 v -6.57 h 1.31 c 0.65,0 1.14,0.16 1.5,0.48 0.34,0.33 0.53,0.93 0.53,1.78 v 2.11 c 0,0.76 -0.15,1.33 -0.41,1.68 M 0,0 -1.62,-10.82 h 3.26 z m 0,0 -1.62,-10.82 h 3.26 z m 42.32,0.21 c -0.28,0.36 -0.71,0.52 -1.29,0.52 h -1.64 v -6.57 h 1.31 c 0.65,0 1.14,0.16 1.5,0.48 0.34,0.33 0.53,0.93 0.53,1.78 v 2.11 c 0,0.76 -0.15,1.33 -0.41,1.68 M 53.91,0 52.29,-10.82 h 3.26 z m 71.28,0.21 c -0.26,0.36 -0.71,0.52 -1.3,0.52 h -1.61 v -6.57 h 1.31 c 0.63,0 1.13,0.16 1.48,0.48 0.36,0.33 0.54,0.93 0.54,1.78 v 2.11 c 0,0.76 -0.14,1.33 -0.42,1.68 M 136.8,0 135.18,-10.82 h 3.24 z m 67.83,0 -1.62,-10.82 h 3.24 z m 0,0 -1.62,-10.82 h 3.24 z m -67.83,0 -1.62,-10.82 h 3.24 z m -11.61,0.21 c -0.26,0.36 -0.71,0.52 -1.3,0.52 h -1.61 v -6.57 h 1.31 c 0.63,0 1.13,0.16 1.48,0.48 0.36,0.33 0.54,0.93 0.54,1.78 v 2.11 c 0,0.76 -0.14,1.33 -0.42,1.68 M 53.91,0 52.29,-10.82 h 3.26 z M 42.32,0.21 c -0.28,0.36 -0.71,0.52 -1.29,0.52 h -1.64 v -6.57 h 1.31 c 0.65,0 1.14,0.16 1.5,0.48 0.34,0.33 0.53,0.93 0.53,1.78 v 2.11 c 0,0.76 -0.15,1.33 -0.41,1.68 M 0,0 -1.62,-10.82 h 3.26 z m 0,0 -1.62,-10.82 h 3.26 z m 42.32,0.21 c -0.28,0.36 -0.71,0.52 -1.29,0.52 h -1.64 v -6.57 h 1.31 c 0.65,0 1.14,0.16 1.5,0.48 0.34,0.33 0.53,0.93 0.53,1.78 v 2.11 c 0,0.76 -0.15,1.33 -0.41,1.68 M 53.91,0 52.29,-10.82 h 3.26 z m 71.28,0.21 c -0.26,0.36 -0.71,0.52 -1.3,0.52 h -1.61 v -6.57 h 1.31 c 0.63,0 1.13,0.16 1.48,0.48 0.36,0.33 0.54,0.93 0.54,1.78 v 2.11 c 0,0.76 -0.14,1.33 -0.42,1.68 M 136.8,0 135.18,-10.82 h 3.24 z m 67.83,0 -1.62,-10.82 h 3.24 z m 28.73,0.27 c -0.31,0.32 -0.73,0.46 -1.26,0.46 h -1.9 v -15.29 h 1.9 c 0.53,0 0.95,0.16 1.26,0.46 0.3,0.31 0.44,0.85 0.44,1.62 v 11.13 c 0,0.79 -0.14,1.31 -0.44,1.62 m 0,0 c -0.31,0.32 -0.73,0.46 -1.26,0.46 h -1.9 v -15.29 h 1.9 c 0.53,0 0.95,0.16 1.26,0.46 0.3,0.31 0.44,0.85 0.44,1.62 v 11.13 c 0,0.79 -0.14,1.31 -0.44,1.62 M 204.63,0 203.01,-10.82 h 3.24 z m -67.83,0 -1.62,-10.82 h 3.24 z m -11.61,0.21 c -0.26,0.36 -0.71,0.52 -1.3,0.52 h -1.61 v -6.57 h 1.31 c 0.63,0 1.13,0.16 1.48,0.48 0.36,0.33 0.54,0.93 0.54,1.78 v 2.11 c 0,0.76 -0.14,1.33 -0.42,1.68 M 53.91,0 52.29,-10.82 h 3.26 z M 42.32,0.21 c -0.28,0.36 -0.71,0.52 -1.29,0.52 h -1.64 v -6.57 h 1.31 c 0.65,0 1.14,0.16 1.5,0.48 0.34,0.33 0.53,0.93 0.53,1.78 v 2.11 c 0,0.76 -0.15,1.33 -0.41,1.68 M 0,0 -1.62,-10.82 h 3.26 z m 0,0 -1.62,-10.82 h 3.26 z m 42.32,0.21 c -0.28,0.36 -0.71,0.52 -1.29,0.52 h -1.64 v -6.57 h 1.31 c 0.65,0 1.14,0.16 1.5,0.48 0.34,0.33 0.53,0.93 0.53,1.78 v 2.11 c 0,0.76 -0.15,1.33 -0.41,1.68 M 53.91,0 52.29,-10.82 h 3.26 z m 71.28,0.21 c -0.26,0.36 -0.71,0.52 -1.3,0.52 h -1.61 v -6.57 h 1.31 c 0.63,0 1.13,0.16 1.48,0.48 0.36,0.33 0.54,0.93 0.54,1.78 v 2.11 c 0,0.76 -0.14,1.33 -0.42,1.68 M 136.8,0 135.18,-10.82 h 3.24 z m 67.83,0 -1.62,-10.82 h 3.24 z m 28.73,0.27 c -0.31,0.32 -0.73,0.46 -1.26,0.46 h -1.9 v -15.29 h 1.9 c 0.53,0 0.95,0.16 1.26,0.46 0.3,0.31 0.44,0.85 0.44,1.62 v 11.13 c 0,0.79 -0.14,1.31 -0.44,1.62 m 32.15,-0.06 c -0.27,0.36 -0.71,0.52 -1.3,0.52 h -1.62 v -6.57 h 1.32 c 0.62,0 1.13,0.16 1.47,0.48 0.37,0.33 0.55,0.93 0.55,1.78 v 2.11 c 0,0.76 -0.14,1.33 -0.42,1.68 m 0,0 c -0.27,0.36 -0.71,0.52 -1.3,0.52 h -1.62 v -6.57 h 1.32 c 0.62,0 1.13,0.16 1.47,0.48 0.37,0.33 0.55,0.93 0.55,1.78 v 2.11 c 0,0.76 -0.14,1.33 -0.42,1.68 m -32.15,0.06 c -0.31,0.32 -0.73,0.46 -1.26,0.46 h -1.9 v -15.29 h 1.9 c 0.53,0 0.95,0.16 1.26,0.46 0.3,0.31 0.44,0.85 0.44,1.62 v 11.13 c 0,0.79 -0.14,1.31 -0.44,1.62 M 204.63,0 203.01,-10.82 h 3.24 z m -67.83,0 -1.62,-10.82 h 3.24 z m -11.61,0.21 c -0.26,0.36 -0.71,0.52 -1.3,0.52 h -1.61 v -6.57 h 1.31 c 0.63,0 1.13,0.16 1.48,0.48 0.36,0.33 0.54,0.93 0.54,1.78 v 2.11 c 0,0.76 -0.14,1.33 -0.42,1.68 M 53.91,0 52.29,-10.82 h 3.26 z M 42.32,0.21 c -0.28,0.36 -0.71,0.52 -1.29,0.52 h -1.64 v -6.57 h 1.31 c 0.65,0 1.14,0.16 1.5,0.48 0.34,0.33 0.53,0.93 0.53,1.78 v 2.11 c 0,0.76 -0.15,1.33 -0.41,1.68 M 0,0 -1.62,-10.82 h 3.26 z m 0,0 -1.62,-10.82 h 3.26 z m 42.32,0.21 c -0.28,0.36 -0.71,0.52 -1.29,0.52 h -1.64 v -6.57 h 1.31 c 0.65,0 1.14,0.16 1.5,0.48 0.34,0.33 0.53,0.93 0.53,1.78 v 2.11 c 0,0.76 -0.15,1.33 -0.41,1.68 M 53.91,0 52.29,-10.82 h 3.26 z m 71.28,0.21 c -0.26,0.36 -0.71,0.52 -1.3,0.52 h -1.61 v -6.57 h 1.31 c 0.63,0 1.13,0.16 1.48,0.48 0.36,0.33 0.54,0.93 0.54,1.78 v 2.11 c 0,0.76 -0.14,1.33 -0.42,1.68 M 136.8,0 135.18,-10.82 h 3.24 z m 67.83,0 -1.62,-10.82 h 3.24 z m 28.73,0.27 c -0.31,0.32 -0.73,0.46 -1.26,0.46 h -1.9 v -15.29 h 1.9 c 0.53,0 0.95,0.16 1.26,0.46 0.3,0.31 0.44,0.85 0.44,1.62 v 11.13 c 0,0.79 -0.14,1.31 -0.44,1.62 m 32.15,-0.06 c -0.27,0.36 -0.71,0.52 -1.3,0.52 h -1.62 v -6.57 h 1.32 c 0.62,0 1.13,0.16 1.47,0.48 0.37,0.33 0.55,0.93 0.55,1.78 v 2.11 c 0,0.76 -0.14,1.33 -0.42,1.68 M 277.12,0 275.5,-10.82 h 3.24 z m 0,0 -1.62,-10.82 h 3.24 z m -11.61,0.21 c -0.27,0.36 -0.71,0.52 -1.3,0.52 h -1.62 v -6.57 h 1.32 c 0.62,0 1.13,0.16 1.47,0.48 0.37,0.33 0.55,0.93 0.55,1.78 v 2.11 c 0,0.76 -0.14,1.33 -0.42,1.68 m -32.15,0.06 c -0.31,0.32 -0.73,0.46 -1.26,0.46 h -1.9 v -15.29 h 1.9 c 0.53,0 0.95,0.16 1.26,0.46 0.3,0.31 0.44,0.85 0.44,1.62 v 11.13 c 0,0.79 -0.14,1.31 -0.44,1.62 M 204.63,0 203.01,-10.82 h 3.24 z m -67.83,0 -1.62,-10.82 h 3.24 z m -11.61,0.21 c -0.26,0.36 -0.71,0.52 -1.3,0.52 h -1.61 v -6.57 h 1.31 c 0.63,0 1.13,0.16 1.48,0.48 0.36,0.33 0.54,0.93 0.54,1.78 v 2.11 c 0,0.76 -0.14,1.33 -0.42,1.68 M 53.91,0 52.29,-10.82 h 3.26 z M 42.32,0.21 c -0.28,0.36 -0.71,0.52 -1.29,0.52 h -1.64 v -6.57 h 1.31 c 0.65,0 1.14,0.16 1.5,0.48 0.34,0.33 0.53,0.93 0.53,1.78 v 2.11 c 0,0.76 -0.15,1.33 -0.41,1.68 M 0,0 -1.62,-10.82 h 3.26 z m 0,0 -1.62,-10.82 h 3.26 z m 42.32,0.21 c -0.28,0.36 -0.71,0.52 -1.29,0.52 h -1.64 v -6.57 h 1.31 c 0.65,0 1.14,0.16 1.5,0.48 0.34,0.33 0.53,0.93 0.53,1.78 v 2.11 c 0,0.76 -0.15,1.33 -0.41,1.68 M 53.91,0 52.29,-10.82 h 3.26 z m 71.28,0.21 c -0.26,0.36 -0.71,0.52 -1.3,0.52 h -1.61 v -6.57 h 1.31 c 0.63,0 1.13,0.16 1.48,0.48 0.36,0.33 0.54,0.93 0.54,1.78 v 2.11 c 0,0.76 -0.14,1.33 -0.42,1.68 M 136.8,0 135.18,-10.82 h 3.24 z m 67.83,0 -1.62,-10.82 h 3.24 z m 28.73,0.27 c -0.31,0.32 -0.73,0.46 -1.26,0.46 h -1.9 v -15.29 h 1.9 c 0.53,0 0.95,0.16 1.26,0.46 0.3,0.31 0.44,0.85 0.44,1.62 v 11.13 c 0,0.79 -0.14,1.31 -0.44,1.62 m 32.15,-0.06 c -0.27,0.36 -0.71,0.52 -1.3,0.52 h -1.62 v -6.57 h 1.32 c 0.62,0 1.13,0.16 1.47,0.48 0.37,0.33 0.55,0.93 0.55,1.78 v 2.11 c 0,0.76 -0.14,1.33 -0.42,1.68 M 277.12,0 275.5,-10.82 h 3.24 z m 0,0 -1.62,-10.82 h 3.24 z m -11.61,0.21 c -0.27,0.36 -0.71,0.52 -1.3,0.52 h -1.62 v -6.57 h 1.32 c 0.62,0 1.13,0.16 1.47,0.48 0.37,0.33 0.55,0.93 0.55,1.78 v 2.11 c 0,0.76 -0.14,1.33 -0.42,1.68 m -32.15,0.06 c -0.31,0.32 -0.73,0.46 -1.26,0.46 h -1.9 v -15.29 h 1.9 c 0.53,0 0.95,0.16 1.26,0.46 0.3,0.31 0.44,0.85 0.44,1.62 v 11.13 c 0,0.79 -0.14,1.31 -0.44,1.62 M 204.63,0 203.01,-10.82 h 3.24 z m -67.83,0 -1.62,-10.82 h 3.24 z m -11.61,0.21 c -0.26,0.36 -0.71,0.52 -1.3,0.52 h -1.61 v -6.57 h 1.31 c 0.63,0 1.13,0.16 1.48,0.48 0.36,0.33 0.54,0.93 0.54,1.78 v 2.11 c 0,0.76 -0.14,1.33 -0.42,1.68 M 53.91,0 52.29,-10.82 h 3.26 z M 42.32,0.21 c -0.28,0.36 -0.71,0.52 -1.29,0.52 h -1.64 v -6.57 h 1.31 c 0.65,0 1.14,0.16 1.5,0.48 0.34,0.33 0.53,0.93 0.53,1.78 v 2.11 c 0,0.76 -0.15,1.33 -0.41,1.68 M 0,0 -1.62,-10.82 H 1.64 Z M -1.62,-10.82 H 1.64 L 0,0 Z M 41.03,0.73 h -1.64 v -6.57 h 1.31 c 0.65,0 1.14,0.16 1.5,0.48 0.34,0.33 0.53,0.93 0.53,1.78 v 2.11 c 0,0.76 -0.15,1.33 -0.41,1.68 -0.28,0.36 -0.71,0.52 -1.29,0.52 m 11.26,-11.55 h 3.26 L 53.91,0 Z m 71.6,11.55 h -1.61 v -6.57 h 1.31 c 0.63,0 1.13,0.16 1.48,0.48 0.36,0.33 0.54,0.93 0.54,1.78 v 2.11 c 0,0.76 -0.14,1.33 -0.42,1.68 -0.26,0.36 -0.71,0.52 -1.3,0.52 m 11.29,-11.55 h 3.24 L 136.8,0 Z m 67.83,0 h 3.24 L 204.63,0 Z M 232.1,0.73 h -1.9 v -15.29 h 1.9 c 0.53,0 0.95,0.16 1.26,0.46 0.3,0.31 0.44,0.85 0.44,1.62 v 11.13 c 0,0.79 -0.14,1.31 -0.44,1.62 -0.31,0.32 -0.73,0.46 -1.26,0.46 m 32.11,0 h -1.62 v -6.57 h 1.32 c 0.62,0 1.13,0.16 1.47,0.48 0.37,0.33 0.55,0.93 0.55,1.78 v 2.11 c 0,0.76 -0.14,1.33 -0.42,1.68 -0.27,0.36 -0.71,0.52 -1.3,0.52 m 11.29,-11.55 h 3.24 L 277.12,0 Z m 40.51,-5.65 c -0.83,-0.93 -2.09,-1.39 -3.74,-1.39 -1.64,0 -2.9,0.46 -3.75,1.39 -0.85,0.94 -1.27,2.25 -1.27,3.99 v 1.32 h 3.19 v -1.54 c 0,-0.77 0.15,-1.32 0.47,-1.62 0.32,-0.3 0.73,-0.45 1.27,-0.45 0.53,0 0.96,0.15 1.26,0.45 0.32,0.3 0.48,0.85 0.48,1.62 0,0.75 -0.16,1.39 -0.48,1.94 -0.32,0.57 -0.75,1.09 -1.24,1.6 -0.48,0.5 -1.01,0.99 -1.57,1.5 -0.55,0.5 -1.08,1.05 -1.56,1.63 -0.51,0.59 -0.91,1.26 -1.24,2.03 -0.32,0.75 -0.48,1.64 -0.48,2.65 0,1.74 0.4,3.07 1.23,4 0.83,0.91 2.07,1.38 3.73,1.38 1.63,0 2.89,-0.47 3.7,-1.38 0.83,-0.93 1.25,-2.26 1.25,-4 v -0.67 h -3.19 v 0.89 c 0,0.77 -0.15,1.31 -0.43,1.64 -0.3,0.3 -0.73,0.46 -1.25,0.46 -0.53,0 -0.93,-0.16 -1.24,-0.46 -0.3,-0.33 -0.44,-0.87 -0.44,-1.64 0,-0.73 0.16,-1.38 0.48,-1.94 0.33,-0.57 0.75,-1.09 1.24,-1.6 0.48,-0.49 1.01,-0.99 1.58,-1.5 0.54,-0.5 1.07,-1.03 1.57,-1.64 0.49,-0.58 0.89,-1.25 1.22,-2 0.32,-0.77 0.48,-1.66 0.48,-2.67 0,-1.74 -0.42,-3.05 -1.27,-3.99 m -9.82,17.2 h -3.5 v -18.35 h -3.38 V 0.73 h -3.5 v 3.06 h 10.38 z m -11.79,0 h -5.55 v -6.45 h 4.35 v -3.06 h -4.35 v -8.84 h -3.36 V 3.79 h 8.91 z m -14.63,-18.35 -0.57,3.89 h -4.12 l -0.59,-3.89 h -3.1 l 3.44,21.41 h 4.92 l 3.42,-21.41 z m -13.52,0 c -0.04,0.14 -0.08,0.28 -0.12,0.41 -0.04,0.12 -0.08,0.26 -0.1,0.44 -0.04,0.18 -0.06,0.43 -0.06,0.71 -0.02,0.28 -0.02,0.65 -0.02,1.07 v 3.36 c 0,1.01 -0.16,1.7 -0.52,2.12 -0.35,0.41 -0.9,0.61 -1.68,0.61 h -1.16 v -8.72 h -3.36 V 3.79 h 5.08 c 1.74,0 3.02,-0.41 3.81,-1.22 0.78,-0.83 1.17,-2.06 1.17,-3.7 v -1.68 c 0,-2.2 -0.73,-3.66 -2.21,-4.35 0.85,-0.34 1.44,-0.91 1.76,-1.7 0.33,-0.79 0.47,-1.74 0.47,-2.85 v -3.3 c 0,-0.55 0.02,-1.01 0.06,-1.39 0.04,-0.41 0.14,-0.81 0.32,-1.22 z m -9.83,14.18 h -3.19 v 2.31 c 0,0.77 -0.15,1.31 -0.47,1.64 -0.32,0.3 -0.75,0.46 -1.27,0.46 -0.53,0 -0.96,-0.16 -1.28,-0.46 -0.3,-0.33 -0.46,-0.87 -0.46,-1.64 V -12.7 c 0,-0.77 0.16,-1.32 0.46,-1.62 0.32,-0.3 0.75,-0.45 1.28,-0.45 0.52,0 0.95,0.15 1.27,0.45 0.32,0.3 0.47,0.85 0.47,1.62 v 3.07 h 3.19 v -2.85 c 0,-1.74 -0.42,-3.05 -1.27,-3.99 -0.85,-0.93 -2.11,-1.39 -3.75,-1.39 -1.65,0 -2.91,0.46 -3.76,1.39 -0.83,0.94 -1.25,2.25 -1.25,3.99 v 11.13 c 0,1.74 0.42,3.07 1.25,4 0.85,0.91 2.11,1.38 3.76,1.38 1.64,0 2.9,-0.47 3.75,-1.38 0.85,-0.93 1.27,-2.26 1.27,-4 z m -12.97,-14.18 h -3.37 V 3.79 h 3.37 z m -6.27,5.3 c 0,-1.74 -0.42,-3.05 -1.23,-3.94 -0.83,-0.91 -2.11,-1.36 -3.79,-1.36 h -5.32 V 3.79 h 5.32 c 1.68,0 2.96,-0.45 3.79,-1.34 0.81,-0.91 1.23,-2.22 1.23,-3.94 z m -13.51,-5.3 h -3.46 l -4.19,15.5 v -15.5 h -3.03 V 3.79 h 4.22 l 3.44,-12.81 V 3.79 h 3.02 z m -16.37,0 -0.59,3.89 h -4.12 L 202,-17.62 h -3.08 l 3.42,21.41 h 4.92 l 3.44,-21.41 z m -10.7,0 h -3.44 v 9.19 h -3.8 v -9.19 h -3.38 V 3.79 h 3.38 v -9.17 h 3.8 v 9.17 h 3.44 z m -17.78,14.18 h -3.17 v 2.31 c 0,0.77 -0.17,1.31 -0.49,1.64 -0.3,0.3 -0.73,0.46 -1.25,0.46 -0.55,0 -0.98,-0.16 -1.28,-0.46 -0.32,-0.33 -0.48,-0.87 -0.48,-1.64 V -12.7 c 0,-0.77 0.16,-1.32 0.48,-1.62 0.3,-0.3 0.73,-0.45 1.28,-0.45 0.52,0 0.95,0.15 1.25,0.45 0.32,0.3 0.49,0.85 0.49,1.62 v 3.07 h 3.17 v -2.85 c 0,-1.74 -0.42,-3.05 -1.27,-3.99 -0.85,-0.93 -2.09,-1.39 -3.75,-1.39 -1.65,0 -2.89,0.46 -3.74,1.39 -0.85,0.94 -1.27,2.25 -1.27,3.99 v 11.13 c 0,1.74 0.42,3.07 1.27,4 0.85,0.91 2.09,1.38 3.74,1.38 1.66,0 2.9,-0.47 3.75,-1.38 0.85,-0.93 1.27,-2.26 1.27,-4 z M 165.85,-17.62 H 162.5 V 3.79 h 3.35 z m -6.57,0 h -3.18 v 15.36 l -2.32,-15.36 h -3.18 l -2.51,15.13 v -15.13 h -2.93 V 3.79 h 4.67 l 2.47,-15.2 2.3,15.2 h 4.68 z m -19.81,0 -0.58,3.89 h -4.13 l -0.59,-3.89 h -3.09 l 3.44,21.41 h 4.91 l 3.42,-21.41 z m -13.53,0 c -0.04,0.14 -0.08,0.28 -0.12,0.41 -0.04,0.12 -0.07,0.26 -0.11,0.44 -0.02,0.18 -0.06,0.43 -0.06,0.71 -0.02,0.28 -0.02,0.65 -0.02,1.07 v 3.36 c 0,1.01 -0.16,1.7 -0.5,2.12 -0.37,0.41 -0.91,0.61 -1.7,0.61 h -1.15 v -8.72 h -3.36 V 3.79 h 5.07 c 1.74,0 3.02,-0.41 3.81,-1.22 0.79,-0.83 1.17,-2.06 1.17,-3.7 v -1.68 c 0,-2.2 -0.73,-3.66 -2.2,-4.35 0.85,-0.34 1.43,-0.91 1.76,-1.7 0.32,-0.79 0.48,-1.74 0.48,-2.85 v -3.3 c 0,-0.55 0.02,-1.01 0.06,-1.39 0.04,-0.41 0.14,-0.81 0.31,-1.22 z m -9.88,18.35 h -5.8 v -5.97 h 4.61 v -3.05 h -4.61 v -6.27 h 5.8 v -3.06 H 106.9 V 3.79 h 9.16 z m -11.97,-4.17 h -3.2 v 2.31 c 0,0.77 -0.14,1.31 -0.46,1.64 -0.33,0.3 -0.75,0.46 -1.28,0.46 -0.53,0 -0.95,-0.16 -1.27,-0.46 -0.31,-0.33 -0.47,-0.87 -0.47,-1.64 V -12.7 c 0,-0.77 0.16,-1.32 0.47,-1.62 0.32,-0.3 0.74,-0.45 1.27,-0.45 0.53,0 0.95,0.15 1.28,0.45 0.32,0.3 0.46,0.85 0.46,1.62 v 3.07 h 3.2 v -2.85 c 0,-1.74 -0.43,-3.05 -1.28,-3.99 -0.85,-0.93 -2.1,-1.39 -3.74,-1.39 -1.66,0 -2.91,0.46 -3.76,1.39 -0.83,0.94 -1.26,2.25 -1.26,3.99 v 11.13 c 0,1.74 0.43,3.07 1.26,4 0.85,0.91 2.1,1.38 3.76,1.38 1.64,0 2.89,-0.47 3.74,-1.38 0.85,-0.93 1.28,-2.26 1.28,-4 z m -18.21,0 H 82.7 v 2.31 c 0,0.77 -0.16,1.31 -0.48,1.64 -0.31,0.3 -0.73,0.46 -1.26,0.46 -0.52,0 -0.95,-0.16 -1.27,-0.46 -0.33,-0.33 -0.47,-0.87 -0.47,-1.64 V -12.7 c 0,-0.77 0.14,-1.32 0.47,-1.62 0.32,-0.3 0.75,-0.45 1.27,-0.45 0.53,0 0.95,0.15 1.26,0.45 0.32,0.3 0.48,0.85 0.48,1.62 v 3.94 h -1.53 v 3.08 h 4.71 v -6.8 c 0,-1.74 -0.43,-3.05 -1.28,-3.99 -0.83,-0.93 -2.08,-1.39 -3.74,-1.39 -1.64,0 -2.89,0.46 -3.74,1.39 -0.85,0.94 -1.28,2.25 -1.28,3.99 v 11.13 c 0,1.74 0.43,3.07 1.28,4 0.85,0.91 2.1,1.38 3.74,1.38 1.66,0 2.91,-0.47 3.74,-1.38 0.85,-0.93 1.28,-2.26 1.28,-4 z M 72.95,-17.62 h -3.46 l -4.19,15.5 v -15.5 H 62.27 V 3.79 H 66.5 L 69.96,-9.02 V 3.79 h 2.99 z m -16.37,0 -0.58,3.89 h -4.13 l -0.59,-3.89 h -3.07 l 3.42,21.41 h 4.91 l 3.44,-21.41 z m -13.51,0 c -0.04,0.14 -0.08,0.28 -0.12,0.41 -0.04,0.12 -0.08,0.26 -0.12,0.44 -0.02,0.18 -0.04,0.43 -0.06,0.71 v 4.43 c 0,1.01 -0.19,1.7 -0.53,2.12 -0.34,0.41 -0.91,0.61 -1.68,0.61 h -1.17 v -8.72 H 36.03 V 3.79 h 5.08 c 1.76,0 3.01,-0.41 3.8,-1.22 0.79,-0.83 1.17,-2.06 1.17,-3.7 v -1.68 c 0,-2.2 -0.72,-3.66 -2.18,-4.35 0.85,-0.34 1.44,-0.91 1.76,-1.7 0.3,-0.79 0.46,-1.74 0.46,-2.85 v -3.3 c 0,-0.55 0.02,-1.01 0.07,-1.39 0.04,-0.41 0.14,-0.81 0.3,-1.22 z M 33.8,0.73 H 30.28 V -17.62 H 26.92 V 0.73 H 23.4 v 3.06 h 10.4 z m -17.15,0 H 13.13 V -17.62 H 9.77 V 0.73 H 6.25 v 3.06 h 10.4 z M 2.67,-17.62 2.08,-13.73 h -4.13 l -0.58,-3.89 h -3.08 l 3.42,21.41 h 4.92 l 3.44,-21.41 z m -10.28,5.08 c 0,-1.66 -0.43,-2.91 -1.27,-3.78 -0.87,-0.87 -2.15,-1.3 -3.83,-1.3 h -5.3 V 3.79 h 5.08 c 1.76,0 3.01,-0.41 3.8,-1.22 0.79,-0.83 1.18,-2.06 1.18,-3.7 V -1.9 c 0,-1.09 -0.17,-2 -0.51,-2.71 -0.34,-0.73 -0.91,-1.25 -1.66,-1.6 0.91,-0.34 1.56,-0.91 1.94,-1.7 0.39,-0.79 0.57,-1.74 0.57,-2.89 z M 324.2,15.45 H -24.93 c -3.93,0 -7.11,-3.17 -7.11,-7.1 v -30.53 c 0,-3.92 3.18,-7.1 7.11,-7.1 H 324.2 c 3.92,0 7.1,3.18 7.1,7.1 V 8.35 c 0,3.93 -3.18,7.1 -7.1,7.1 M 0,0 -1.62,-10.82 h 3.26 z m 42.32,0.21 c -0.28,0.36 -0.71,0.52 -1.29,0.52 h -1.64 v -6.57 h 1.31 c 0.65,0 1.14,0.16 1.5,0.48 0.34,0.33 0.53,0.93 0.53,1.78 v 2.11 c 0,0.76 -0.15,1.33 -0.41,1.68 M 53.91,0 52.29,-10.82 h 3.26 z m 71.28,0.21 c -0.26,0.36 -0.71,0.52 -1.3,0.52 h -1.61 v -6.57 h 1.31 c 0.63,0 1.13,0.16 1.48,0.48 0.36,0.33 0.54,0.93 0.54,1.78 v 2.11 c 0,0.76 -0.14,1.33 -0.42,1.68 M 136.8,0 135.18,-10.82 h 3.24 z m 67.83,0 -1.62,-10.82 h 3.24 z m 28.73,0.27 c -0.31,0.32 -0.73,0.46 -1.26,0.46 h -1.9 v -15.29 h 1.9 c 0.53,0 0.95,0.16 1.26,0.46 0.3,0.31 0.44,0.85 0.44,1.62 v 11.13 c 0,0.79 -0.14,1.31 -0.44,1.62 m 32.15,-0.06 c -0.27,0.36 -0.71,0.52 -1.3,0.52 h -1.62 v -6.57 h 1.32 c 0.62,0 1.13,0.16 1.47,0.48 0.37,0.33 0.55,0.93 0.55,1.78 v 2.11 c 0,0.76 -0.14,1.33 -0.42,1.68 M 277.12,0 275.5,-10.82 h 3.24 z m 0,0 -1.62,-10.82 h 3.24 z m -11.61,0.21 c -0.27,0.36 -0.71,0.52 -1.3,0.52 h -1.62 v -6.57 h 1.32 c 0.62,0 1.13,0.16 1.47,0.48 0.37,0.33 0.55,0.93 0.55,1.78 v 2.11 c 0,0.76 -0.14,1.33 -0.42,1.68 m -32.15,0.06 c -0.31,0.32 -0.73,0.46 -1.26,0.46 h -1.9 v -15.29 h 1.9 c 0.53,0 0.95,0.16 1.26,0.46 0.3,0.31 0.44,0.85 0.44,1.62 v 11.13 c 0,0.79 -0.14,1.31 -0.44,1.62 M 204.63,0 203.01,-10.82 h 3.24 z m -67.83,0 -1.62,-10.82 h 3.24 z m -11.61,0.21 c -0.26,0.36 -0.71,0.52 -1.3,0.52 h -1.61 v -6.57 h 1.31 c 0.63,0 1.13,0.16 1.48,0.48 0.36,0.33 0.54,0.93 0.54,1.78 v 2.11 c 0,0.76 -0.14,1.33 -0.42,1.68 M 53.91,0 52.29,-10.82 h 3.26 z M 42.32,0.21 c -0.28,0.36 -0.71,0.52 -1.29,0.52 h -1.64 v -6.57 h 1.31 c 0.65,0 1.14,0.16 1.5,0.48 0.34,0.33 0.53,0.93 0.53,1.78 v 2.11 c 0,0.76 -0.15,1.33 -0.41,1.68 M 0,0 -1.62,-10.82 h 3.26 z m 0,0 -1.62,-10.82 h 3.26 z m 42.32,0.21 c -0.28,0.36 -0.71,0.52 -1.29,0.52 h -1.64 v -6.57 h 1.31 c 0.65,0 1.14,0.16 1.5,0.48 0.34,0.33 0.53,0.93 0.53,1.78 v 2.11 c 0,0.76 -0.15,1.33 -0.41,1.68 M 53.91,0 52.29,-10.82 h 3.26 z m 71.28,0.21 c -0.26,0.36 -0.71,0.52 -1.3,0.52 h -1.61 v -6.57 h 1.31 c 0.63,0 1.13,0.16 1.48,0.48 0.36,0.33 0.54,0.93 0.54,1.78 v 2.11 c 0,0.76 -0.14,1.33 -0.42,1.68 M 136.8,0 135.18,-10.82 h 3.24 z m 67.83,0 -1.62,-10.82 h 3.24 z m 28.73,0.27 c -0.31,0.32 -0.73,0.46 -1.26,0.46 h -1.9 v -15.29 h 1.9 c 0.53,0 0.95,0.16 1.26,0.46 0.3,0.31 0.44,0.85 0.44,1.62 v 11.13 c 0,0.79 -0.14,1.31 -0.44,1.62 m 32.15,-0.06 c -0.27,0.36 -0.71,0.52 -1.3,0.52 h -1.62 v -6.57 h 1.32 c 0.62,0 1.13,0.16 1.47,0.48 0.37,0.33 0.55,0.93 0.55,1.78 v 2.11 c 0,0.76 -0.14,1.33 -0.42,1.68 M 277.12,0 275.5,-10.82 h 3.24 z m 0,0 -1.62,-10.82 h 3.24 z m -11.61,0.21 c -0.27,0.36 -0.71,0.52 -1.3,0.52 h -1.62 v -6.57 h 1.32 c 0.62,0 1.13,0.16 1.47,0.48 0.37,0.33 0.55,0.93 0.55,1.78 v 2.11 c 0,0.76 -0.14,1.33 -0.42,1.68 m -32.15,0.06 c -0.31,0.32 -0.73,0.46 -1.26,0.46 h -1.9 v -15.29 h 1.9 c 0.53,0 0.95,0.16 1.26,0.46 0.3,0.31 0.44,0.85 0.44,1.62 v 11.13 c 0,0.79 -0.14,1.31 -0.44,1.62 M 204.63,0 203.01,-10.82 h 3.24 z m -67.83,0 -1.62,-10.82 h 3.24 z m -11.61,0.21 c -0.26,0.36 -0.71,0.52 -1.3,0.52 h -1.61 v -6.57 h 1.31 c 0.63,0 1.13,0.16 1.48,0.48 0.36,0.33 0.54,0.93 0.54,1.78 v 2.11 c 0,0.76 -0.14,1.33 -0.42,1.68 M 53.91,0 52.29,-10.82 h 3.26 z M 42.32,0.21 c -0.28,0.36 -0.71,0.52 -1.29,0.52 h -1.64 v -6.57 h 1.31 c 0.65,0 1.14,0.16 1.5,0.48 0.34,0.33 0.53,0.93 0.53,1.78 v 2.11 c 0,0.76 -0.15,1.33 -0.41,1.68 M 0,0 -1.62,-10.82 h 3.26 z m 0,0 -1.62,-10.82 h 3.26 z m 42.32,0.21 c -0.28,0.36 -0.71,0.52 -1.29,0.52 h -1.64 v -6.57 h 1.31 c 0.65,0 1.14,0.16 1.5,0.48 0.34,0.33 0.53,0.93 0.53,1.78 v 2.11 c 0,0.76 -0.15,1.33 -0.41,1.68 M 53.91,0 52.29,-10.82 h 3.26 z m 71.28,0.21 c -0.26,0.36 -0.71,0.52 -1.3,0.52 h -1.61 v -6.57 h 1.31 c 0.63,0 1.13,0.16 1.48,0.48 0.36,0.33 0.54,0.93 0.54,1.78 v 2.11 c 0,0.76 -0.14,1.33 -0.42,1.68 M 136.8,0 135.18,-10.82 h 3.24 z m 67.83,0 -1.62,-10.82 h 3.24 z m 28.73,0.27 c -0.31,0.32 -0.73,0.46 -1.26,0.46 h -1.9 v -15.29 h 1.9 c 0.53,0 0.95,0.16 1.26,0.46 0.3,0.31 0.44,0.85 0.44,1.62 v 11.13 c 0,0.79 -0.14,1.31 -0.44,1.62 m 32.15,-0.06 c -0.27,0.36 -0.71,0.52 -1.3,0.52 h -1.62 v -6.57 h 1.32 c 0.62,0 1.13,0.16 1.47,0.48 0.37,0.33 0.55,0.93 0.55,1.78 v 2.11 c 0,0.76 -0.14,1.33 -0.42,1.68 m 0,0 c -0.27,0.36 -0.71,0.52 -1.3,0.52 h -1.62 v -6.57 h 1.32 c 0.62,0 1.13,0.16 1.47,0.48 0.37,0.33 0.55,0.93 0.55,1.78 v 2.11 c 0,0.76 -0.14,1.33 -0.42,1.68 m -32.15,0.06 c -0.31,0.32 -0.73,0.46 -1.26,0.46 h -1.9 v -15.29 h 1.9 c 0.53,0 0.95,0.16 1.26,0.46 0.3,0.31 0.44,0.85 0.44,1.62 v 11.13 c 0,0.79 -0.14,1.31 -0.44,1.62 M 204.63,0 203.01,-10.82 h 3.24 z m -67.83,0 -1.62,-10.82 h 3.24 z m -11.61,0.21 c -0.26,0.36 -0.71,0.52 -1.3,0.52 h -1.61 v -6.57 h 1.31 c 0.63,0 1.13,0.16 1.48,0.48 0.36,0.33 0.54,0.93 0.54,1.78 v 2.11 c 0,0.76 -0.14,1.33 -0.42,1.68 M 53.91,0 52.29,-10.82 h 3.26 z M 42.32,0.21 c -0.28,0.36 -0.71,0.52 -1.29,0.52 h -1.64 v -6.57 h 1.31 c 0.65,0 1.14,0.16 1.5,0.48 0.34,0.33 0.53,0.93 0.53,1.78 v 2.11 c 0,0.76 -0.15,1.33 -0.41,1.68 M 0,0 -1.62,-10.82 h 3.26 z m 0,0 -1.62,-10.82 h 3.26 z m 42.32,0.21 c -0.28,0.36 -0.71,0.52 -1.29,0.52 h -1.64 v -6.57 h 1.31 c 0.65,0 1.14,0.16 1.5,0.48 0.34,0.33 0.53,0.93 0.53,1.78 v 2.11 c 0,0.76 -0.15,1.33 -0.41,1.68 M 53.91,0 52.29,-10.82 h 3.26 z m 71.28,0.21 c -0.26,0.36 -0.71,0.52 -1.3,0.52 h -1.61 v -6.57 h 1.31 c 0.63,0 1.13,0.16 1.48,0.48 0.36,0.33 0.54,0.93 0.54,1.78 v 2.11 c 0,0.76 -0.14,1.33 -0.42,1.68 M 136.8,0 135.18,-10.82 h 3.24 z m 67.83,0 -1.62,-10.82 h 3.24 z m 28.73,0.27 c -0.31,0.32 -0.73,0.46 -1.26,0.46 h -1.9 v -15.29 h 1.9 c 0.53,0 0.95,0.16 1.26,0.46 0.3,0.31 0.44,0.85 0.44,1.62 v 11.13 c 0,0.79 -0.14,1.31 -0.44,1.62 m 0,0 c -0.31,0.32 -0.73,0.46 -1.26,0.46 h -1.9 v -15.29 h 1.9 c 0.53,0 0.95,0.16 1.26,0.46 0.3,0.31 0.44,0.85 0.44,1.62 v 11.13 c 0,0.79 -0.14,1.31 -0.44,1.62 M 204.63,0 203.01,-10.82 h 3.24 z m -67.83,0 -1.62,-10.82 h 3.24 z m -11.61,0.21 c -0.26,0.36 -0.71,0.52 -1.3,0.52 h -1.61 v -6.57 h 1.31 c 0.63,0 1.13,0.16 1.48,0.48 0.36,0.33 0.54,0.93 0.54,1.78 v 2.11 c 0,0.76 -0.14,1.33 -0.42,1.68 M 53.91,0 52.29,-10.82 h 3.26 z M 42.32,0.21 c -0.28,0.36 -0.71,0.52 -1.29,0.52 h -1.64 v -6.57 h 1.31 c 0.65,0 1.14,0.16 1.5,0.48 0.34,0.33 0.53,0.93 0.53,1.78 v 2.11 c 0,0.76 -0.15,1.33 -0.41,1.68 M 0,0 -1.62,-10.82 h 3.26 z m 0,0 -1.62,-10.82 h 3.26 z m 42.32,0.21 c -0.28,0.36 -0.71,0.52 -1.29,0.52 h -1.64 v -6.57 h 1.31 c 0.65,0 1.14,0.16 1.5,0.48 0.34,0.33 0.53,0.93 0.53,1.78 v 2.11 c 0,0.76 -0.15,1.33 -0.41,1.68 M 53.91,0 52.29,-10.82 h 3.26 z m 71.28,0.21 c -0.26,0.36 -0.71,0.52 -1.3,0.52 h -1.61 v -6.57 h 1.31 c 0.63,0 1.13,0.16 1.48,0.48 0.36,0.33 0.54,0.93 0.54,1.78 v 2.11 c 0,0.76 -0.14,1.33 -0.42,1.68 M 136.8,0 135.18,-10.82 h 3.24 z m 67.83,0 -1.62,-10.82 h 3.24 z m 0,0 -1.62,-10.82 h 3.24 z m -67.83,0 -1.62,-10.82 h 3.24 z m -11.61,0.21 c -0.26,0.36 -0.71,0.52 -1.3,0.52 h -1.61 v -6.57 h 1.31 c 0.63,0 1.13,0.16 1.48,0.48 0.36,0.33 0.54,0.93 0.54,1.78 v 2.11 c 0,0.76 -0.14,1.33 -0.42,1.68 M 53.91,0 52.29,-10.82 h 3.26 z M 42.32,0.21 c -0.28,0.36 -0.71,0.52 -1.29,0.52 h -1.64 v -6.57 h 1.31 c 0.65,0 1.14,0.16 1.5,0.48 0.34,0.33 0.53,0.93 0.53,1.78 v 2.11 c 0,0.76 -0.15,1.33 -0.41,1.68 M 0,0 -1.62,-10.82 h 3.26 z m 0,0 -1.62,-10.82 h 3.26 z m 42.32,0.21 c -0.28,0.36 -0.71,0.52 -1.29,0.52 h -1.64 v -6.57 h 1.31 c 0.65,0 1.14,0.16 1.5,0.48 0.34,0.33 0.53,0.93 0.53,1.78 v 2.11 c 0,0.76 -0.15,1.33 -0.41,1.68 M 53.91,0 52.29,-10.82 h 3.26 z m 71.28,0.21 c -0.26,0.36 -0.71,0.52 -1.3,0.52 h -1.61 v -6.57 h 1.31 c 0.63,0 1.13,0.16 1.48,0.48 0.36,0.33 0.54,0.93 0.54,1.78 v 2.11 c 0,0.76 -0.14,1.33 -0.42,1.68 M 136.8,0 135.18,-10.82 h 3.24 z m 0,0 -1.62,-10.82 h 3.24 z m -11.61,0.21 c -0.26,0.36 -0.71,0.52 -1.3,0.52 h -1.61 v -6.57 h 1.31 c 0.63,0 1.13,0.16 1.48,0.48 0.36,0.33 0.54,0.93 0.54,1.78 v 2.11 c 0,0.76 -0.14,1.33 -0.42,1.68 M 53.91,0 52.29,-10.82 h 3.26 z M 42.32,0.21 c -0.28,0.36 -0.71,0.52 -1.29,0.52 h -1.64 v -6.57 h 1.31 c 0.65,0 1.14,0.16 1.5,0.48 0.34,0.33 0.53,0.93 0.53,1.78 v 2.11 c 0,0.76 -0.15,1.33 -0.41,1.68 M 0,0 -1.62,-10.82 h 3.26 z m 0,0 -1.62,-10.82 h 3.26 z m 42.32,0.21 c -0.28,0.36 -0.71,0.52 -1.29,0.52 h -1.64 v -6.57 h 1.31 c 0.65,0 1.14,0.16 1.5,0.48 0.34,0.33 0.53,0.93 0.53,1.78 v 2.11 c 0,0.76 -0.15,1.33 -0.41,1.68 M 53.91,0 52.29,-10.82 h 3.26 z m 71.28,0.21 c -0.26,0.36 -0.71,0.52 -1.3,0.52 h -1.61 v -6.57 h 1.31 c 0.63,0 1.13,0.16 1.48,0.48 0.36,0.33 0.54,0.93 0.54,1.78 v 2.11 c 0,0.76 -0.14,1.33 -0.42,1.68 M 136.8,0 135.18,-10.82 h 3.24 z m 0,0 -1.62,-10.82 h 3.24 z m -11.61,0.21 c -0.26,0.36 -0.71,0.52 -1.3,0.52 h -1.61 v -6.57 h 1.31 c 0.63,0 1.13,0.16 1.48,0.48 0.36,0.33 0.54,0.93 0.54,1.78 v 2.11 c 0,0.76 -0.14,1.33 -0.42,1.68 M 53.91,0 52.29,-10.82 h 3.26 z M 42.32,0.21 c -0.28,0.36 -0.71,0.52 -1.29,0.52 h -1.64 v -6.57 h 1.31 c 0.65,0 1.14,0.16 1.5,0.48 0.34,0.33 0.53,0.93 0.53,1.78 v 2.11 c 0,0.76 -0.15,1.33 -0.41,1.68 M 0,0 -1.62,-10.82 h 3.26 z m 0,0 -1.62,-10.82 h 3.26 z m 42.32,0.21 c -0.28,0.36 -0.71,0.52 -1.29,0.52 h -1.64 v -6.57 h 1.31 c 0.65,0 1.14,0.16 1.5,0.48 0.34,0.33 0.53,0.93 0.53,1.78 v 2.11 c 0,0.76 -0.15,1.33 -0.41,1.68 M 53.91,0 52.29,-10.82 h 3.26 z m 71.28,0.21 c -0.26,0.36 -0.71,0.52 -1.3,0.52 h -1.61 v -6.57 h 1.31 c 0.63,0 1.13,0.16 1.48,0.48 0.36,0.33 0.54,0.93 0.54,1.78 v 2.11 c 0,0.76 -0.14,1.33 -0.42,1.68 M 136.8,0 135.18,-10.82 h 3.24 z m 0,0 -1.62,-10.82 h 3.24 z m -11.61,0.21 c -0.26,0.36 -0.71,0.52 -1.3,0.52 h -1.61 v -6.57 h 1.31 c 0.63,0 1.13,0.16 1.48,0.48 0.36,0.33 0.54,0.93 0.54,1.78 v 2.11 c 0,0.76 -0.14,1.33 -0.42,1.68 M 53.91,0 52.29,-10.82 h 3.26 z M 42.32,0.21 c -0.28,0.36 -0.71,0.52 -1.29,0.52 h -1.64 v -6.57 h 1.31 c 0.65,0 1.14,0.16 1.5,0.48 0.34,0.33 0.53,0.93 0.53,1.78 v 2.11 c 0,0.76 -0.15,1.33 -0.41,1.68 M 0,0 -1.62,-10.82 h 3.26 z m 0,0 -1.62,-10.82 h 3.26 z m 42.32,0.21 c -0.28,0.36 -0.71,0.52 -1.29,0.52 h -1.64 v -6.57 h 1.31 c 0.65,0 1.14,0.16 1.5,0.48 0.34,0.33 0.53,0.93 0.53,1.78 v 2.11 c 0,0.76 -0.15,1.33 -0.41,1.68 M 53.91,0 52.29,-10.82 h 3.26 z m 71.28,0.21 c -0.26,0.36 -0.71,0.52 -1.3,0.52 h -1.61 v -6.57 h 1.31 c 0.63,0 1.13,0.16 1.48,0.48 0.36,0.33 0.54,0.93 0.54,1.78 v 2.11 c 0,0.76 -0.14,1.33 -0.42,1.68 m 0,0 c -0.26,0.36 -0.71,0.52 -1.3,0.52 h -1.61 v -6.57 h 1.31 c 0.63,0 1.13,0.16 1.48,0.48 0.36,0.33 0.54,0.93 0.54,1.78 v 2.11 c 0,0.76 -0.14,1.33 -0.42,1.68 M 53.91,0 52.29,-10.82 h 3.26 z M 42.32,0.21 c -0.28,0.36 -0.71,0.52 -1.29,0.52 h -1.64 v -6.57 h 1.31 c 0.65,0 1.14,0.16 1.5,0.48 0.34,0.33 0.53,0.93 0.53,1.78 v 2.11 c 0,0.76 -0.15,1.33 -0.41,1.68 M 0,0 -1.62,-10.82 h 3.26 z m 0,0 -1.62,-10.82 h 3.26 z m 42.32,0.21 c -0.28,0.36 -0.71,0.52 -1.29,0.52 h -1.64 v -6.57 h 1.31 c 0.65,0 1.14,0.16 1.5,0.48 0.34,0.33 0.53,0.93 0.53,1.78 v 2.11 c 0,0.76 -0.15,1.33 -0.41,1.68 M 53.91,0 52.29,-10.82 h 3.26 z m 0,0 -1.62,-10.82 h 3.26 z M 42.32,0.21 c -0.28,0.36 -0.71,0.52 -1.29,0.52 h -1.64 v -6.57 h 1.31 c 0.65,0 1.14,0.16 1.5,0.48 0.34,0.33 0.53,0.93 0.53,1.78 v 2.11 c 0,0.76 -0.15,1.33 -0.41,1.68 M 0,0 -1.62,-10.82 h 3.26 z m 0,0 -1.62,-10.82 h 3.26 z m 42.32,0.21 c -0.28,0.36 -0.71,0.52 -1.29,0.52 h -1.64 v -6.57 h 1.31 c 0.65,0 1.14,0.16 1.5,0.48 0.34,0.33 0.53,0.93 0.53,1.78 v 2.11 c 0,0.76 -0.15,1.33 -0.41,1.68 M 53.91,0 52.29,-10.82 h 3.26 z m 0,0 -1.62,-10.82 h 3.26 z M 42.32,0.21 c -0.28,0.36 -0.71,0.52 -1.29,0.52 h -1.64 v -6.57 h 1.31 c 0.65,0 1.14,0.16 1.5,0.48 0.34,0.33 0.53,0.93 0.53,1.78 v 2.11 c 0,0.76 -0.15,1.33 -0.41,1.68 M 0,0 -1.62,-10.82 h 3.26 z m 0,0 -1.62,-10.82 h 3.26 z m 42.32,0.21 c -0.28,0.36 -0.71,0.52 -1.29,0.52 h -1.64 v -6.57 h 1.31 c 0.65,0 1.14,0.16 1.5,0.48 0.34,0.33 0.53,0.93 0.53,1.78 v 2.11 c 0,0.76 -0.15,1.33 -0.41,1.68 m 0,0 c -0.28,0.36 -0.71,0.52 -1.29,0.52 h -1.64 v -6.57 h 1.31 c 0.65,0 1.14,0.16 1.5,0.48 0.34,0.33 0.53,0.93 0.53,1.78 v 2.11 c 0,0.76 -0.15,1.33 -0.41,1.68 M 0,0 -1.62,-10.82 h 3.26 z m 0,0 -1.62,-10.82 h 3.26 z m 0,0 -1.62,-10.82 h 3.26 z m 0,0 -1.62,-10.82 h 3.26 z m 0,0 -1.62,-10.82 h 3.26 z" style="fill:#fcddd8;fill-opacity:1;fill-rule:nonzero;stroke:none" transform="matrix(1.33333 0 0 -1.33333 800.493 1432.173)"/></g></svg>